<?xml version="1.0" encoding="UTF-8"?>
<svg width="24px" height="24px" viewBox="0 0 24 24" version="1.1" xmlns="http://www.w3.org/2000/svg" xmlns:xlink="http://www.w3.org/1999/xlink">
    <!-- Generator: Sketch 50 (54983) - http://www.bohemiancoding.com/sketch -->
    <title>Facebook</title>
    <desc>Created with Sketch.</desc>
    <defs></defs>
    <g id="Design" stroke="none" stroke-width="1" fill="none" fill-rule="evenodd">
        <g id="06_Download" transform="translate(-1070.000000, -674.000000)" fill="#FFFFFF">
            <path d="M1092.66667,674 L1071.33333,674 C1070.597,674 1070,674.597 1070,675.333333 L1070,696.666667 C1070,697.403 1070.597,698 1071.33333,698 L1082.82,698 L1082.82,688.72 L1079.70333,688.72 L1079.70333,685.086667 L1082.82,685.086667 L1082.82,682.42 C1082.82,679.32 1084.71333,677.63 1087.48667,677.63 C1088.41967,677.627333 1089.35233,677.675 1090.28,677.773333 L1090.28,681 L1088.36667,681 C1086.86333,681 1086.57,681.716667 1086.57,682.766667 L1086.57,685.08 L1090.16667,685.08 L1089.7,688.713333 L1086.57,688.713333 L1086.57,698 L1092.66667,698 C1093.403,698 1094,697.403 1094,696.666667 L1094,675.333333 C1094,674.597 1093.403,674 1092.66667,674" id="Facebook"></path>
        </g>
    </g>
</svg>