<svg width="22" height="22" viewBox="0 0 22 22" fill="none" xmlns="http://www.w3.org/2000/svg">
<path fill-rule="evenodd" clip-rule="evenodd" d="M10.7537 0C7.86885 0 7.50734 0.0123735 6.37407 0.0652419C5.24374 0.11811 4.47162 0.302213 3.79584 0.570679C3.09735 0.848895 2.50471 1.22047 1.91427 1.8249C1.32383 2.42932 0.960846 3.036 0.689067 3.75104C0.426812 4.44283 0.246969 5.23323 0.195324 6.39034C0.143679 7.55044 0.131592 7.92052 0.131592 10.8737C0.131592 13.8268 0.143679 14.1969 0.195324 15.357C0.246969 16.5141 0.426812 17.3045 0.689067 17.9963C0.960846 18.7113 1.32383 19.318 1.91427 19.9224C2.50471 20.5268 3.09735 20.8984 3.79584 21.1766C4.47162 21.4451 5.24374 21.6292 6.37407 21.6817C7.50734 21.7349 7.86885 21.7473 10.7537 21.7473C13.6385 21.7473 14 21.7349 15.1333 21.6817C16.2636 21.6292 17.0357 21.4451 17.7115 21.1766C18.41 20.8984 19.0026 20.5268 19.5931 19.9224C20.1835 19.318 20.5465 18.7113 20.8183 17.9963C21.0805 17.3045 21.2604 16.5141 21.3116 15.357C21.3636 14.1969 21.3757 13.8268 21.3757 10.8737C21.3757 7.92052 21.3636 7.55044 21.3116 6.39034C21.2604 5.23323 21.0805 4.44283 20.8183 3.75104C20.5465 3.036 20.1835 2.42932 19.5931 1.8249C19.0026 1.22047 18.41 0.848895 17.7115 0.570679C17.0357 0.302213 16.2636 0.11811 15.1333 0.0652419C14 0.0123735 13.6385 0 10.7537 0ZM10.7537 1.95874C13.5898 1.95874 13.9256 1.96999 15.0461 2.02211C16.0815 2.07048 16.6438 2.24783 17.0185 2.39668C17.514 2.59391 17.8679 2.82938 18.2393 3.20996C18.611 3.59053 18.8414 3.95274 19.0341 4.46005C19.1795 4.84325 19.3528 5.41918 19.3996 6.47917C19.4509 7.62577 19.4615 7.96998 19.4615 10.8732C19.4615 13.7765 19.4509 14.1203 19.3996 15.2673C19.3528 16.3273 19.1795 16.9028 19.0341 17.2864C18.8414 17.7937 18.611 18.1559 18.2393 18.5365C17.8679 18.9167 17.514 19.1526 17.0185 19.3498C16.6438 19.4986 16.0815 19.676 15.0461 19.724C13.926 19.7765 13.5901 19.7874 10.7537 19.7874C7.91721 19.7874 7.58133 19.7765 6.46162 19.724C5.42579 19.676 4.86318 19.4986 4.48885 19.3498C3.99327 19.1526 3.63945 18.9167 3.26768 18.5365C2.89591 18.1559 2.66588 17.7937 2.47322 17.2864C2.32781 16.9028 2.15456 16.3273 2.10731 15.2673C2.0564 14.1203 2.04541 13.7765 2.04541 10.8732C2.04541 7.96998 2.0564 7.62577 2.10731 6.47954C2.15456 5.41918 2.32781 4.84325 2.47322 4.46005C2.66588 3.95274 2.89591 3.59053 3.26768 3.20996C3.63945 2.82938 3.99327 2.59391 4.48885 2.39668C4.86318 2.24783 5.42579 2.07048 6.46125 2.02211C7.58133 1.96999 7.91757 1.95874 10.7537 1.95874Z" fill="black"/>
<path fill-rule="evenodd" clip-rule="evenodd" d="M10.7537 14.4993C8.79815 14.4993 7.21289 12.8765 7.21289 10.8746C7.21289 8.87268 8.79815 7.25024 10.7537 7.25024C12.7093 7.25024 14.2946 8.87268 14.2946 10.8746C14.2946 12.8765 12.7093 14.4993 10.7537 14.4993ZM10.7537 5.29004C7.74104 5.29004 5.29907 7.78982 5.29907 10.8738C5.29907 13.9577 7.74104 16.4575 10.7537 16.4575C13.7663 16.4575 16.2083 13.9577 16.2083 10.8738C16.2083 7.78982 13.7663 5.29004 10.7537 5.29004Z" fill="black"/>
<path fill-rule="evenodd" clip-rule="evenodd" d="M17.6984 5.0686C17.6984 5.78918 17.1277 6.37329 16.4241 6.37329C15.7201 6.37329 15.149 5.78918 15.149 5.0686C15.149 4.34803 15.7201 3.76392 16.4241 3.76392C17.1277 3.76392 17.6984 4.34803 17.6984 5.0686Z" fill="black"/>
</svg>
