<svg width="22" height="22" viewBox="0 0 22 22" fill="none" xmlns="http://www.w3.org/2000/svg">
<mask id="mask0" mask-type="alpha" maskUnits="userSpaceOnUse" x="0" y="0" width="22" height="22">
<path fill-rule="evenodd" clip-rule="evenodd" d="M0.755981 0H21.9999V21.7473H0.755981V0Z" fill="white"/>
</mask>
<g mask="url(#mask0)">
<path fill-rule="evenodd" clip-rule="evenodd" d="M17.9328 7.43261C17.9398 7.58109 17.9427 7.73032 17.9427 7.88031C17.9427 12.4552 14.5407 17.7305 8.32017 17.7305C6.41003 17.7305 4.63285 17.1575 3.13623 16.1755C3.40068 16.2074 3.67026 16.2235 3.94314 16.2235C5.5273 16.2235 6.98545 15.6701 8.14326 14.7413C6.66276 14.7132 5.41448 13.7124 4.98374 12.3367C5.18996 12.3776 5.40166 12.3993 5.6196 12.3993C5.92837 12.3993 6.22726 12.3566 6.51112 12.2774C4.96396 11.9599 3.79773 10.5601 3.79773 8.88332C3.79773 8.86832 3.79773 8.8537 3.79846 8.83908C4.25448 9.09892 4.77569 9.2549 5.33061 9.27253C4.4226 8.65197 3.8252 7.59159 3.8252 6.3906C3.8252 5.75654 3.99259 5.16186 4.28342 4.65041C5.95108 6.74531 8.44361 8.1229 11.2544 8.26764C11.1962 8.01417 11.1665 7.7502 11.1665 7.47835C11.1665 5.56681 12.6811 4.01636 14.5491 4.01636C15.5216 4.01636 16.4003 4.43744 17.0178 5.11011C17.7877 4.95488 18.5115 4.66654 19.165 4.26983C18.9122 5.07824 18.376 5.75654 17.6782 6.18512C18.3621 6.10113 19.014 5.91552 19.6199 5.63993C19.1672 6.33435 18.5932 6.94403 17.9328 7.43261ZM21.9365 6.39034C21.8845 5.23285 21.705 4.44245 21.4424 3.75104C21.171 3.03563 20.808 2.42932 20.2172 1.8249C19.6268 1.22047 19.0345 0.84852 18.336 0.570679C17.6602 0.301838 16.8881 0.11811 15.7578 0.0652419C14.6245 0.0123735 14.2626 0 11.3778 0C8.49337 0 8.13148 0.0123735 6.99858 0.0652419C5.86825 0.11811 5.09577 0.301838 4.41999 0.570679C3.72149 0.84852 3.12922 1.22047 2.53878 1.8249C1.94797 2.42932 1.58499 3.03563 1.31358 3.75104C1.05096 4.44245 0.871481 5.23285 0.819836 6.39034C0.768191 7.55007 0.755737 7.92052 0.755737 10.8737C0.755737 13.8268 0.768191 14.1969 0.819836 15.357C0.871481 16.5141 1.05096 17.3045 1.31358 17.9963C1.58499 18.7113 1.94797 19.3176 2.53878 19.9224C3.12922 20.5268 3.72149 20.8984 4.41999 21.1763C5.09577 21.4451 5.86825 21.6288 6.99858 21.6817C8.13148 21.7349 8.49337 21.7473 11.3778 21.7473C14.2626 21.7473 14.6245 21.7349 15.7578 21.6817C16.8881 21.6288 17.6602 21.4451 18.336 21.1763C19.0345 20.8984 19.6268 20.5268 20.2172 19.9224C20.808 19.3176 21.171 18.7113 21.4424 17.9963C21.705 17.3045 21.8845 16.5141 21.9365 15.357C21.9878 14.1969 21.9999 13.8268 21.9999 10.8737C21.9999 7.92052 21.9878 7.55007 21.9365 6.39034Z" fill="black"/>
</g>
</svg>
