<?xml version="1.0" encoding="UTF-8"?>
<svg width="176px" height="176px" viewBox="0 0 176 176" version="1.1" xmlns="http://www.w3.org/2000/svg" xmlns:xlink="http://www.w3.org/1999/xlink">
    <!-- Generator: Sketch 58 (84663) - https://sketch.com -->
    <title>westpac</title>
    <desc>Created with Sketch.</desc>
    <g id="**_Brand-Assets" stroke="none" stroke-width="1" fill="none" fill-rule="evenodd">
        <g id="bank-logos" transform="translate(-558.000000, -210.000000)">
            <g id="westpac" transform="translate(558.000000, 210.000000)">
                <g id="Westpac_1_" fill="#D5002B">
                    <circle id="Oval" cx="87.90021" cy="88.17673" r="87.699159"></circle>
                </g>
                <g id="Group" transform="translate(23.000000, 61.000000)" fill="#FFFFFF" fill-rule="nonzero">
                    <g id="Path">
                        <path d="M46.1,47.2 L33.5,8 C31.7,2 28.7,0.3 24,0.3 L0.6,0.3 C2.4,1.1 3.7,5.8 3.7,5.8 L15,45.2 C16.3,50.1 20.4,52.7 25,52.7 L49.9,52.7 C48.1,52.5 46.1,47.2 46.1,47.2"></path>
                        <path d="M83.6,47.2 L96.3,8 C98.1,2 101.1,0.3 105.8,0.3 L129.3,0.3 C127.5,1.1 126.2,5.8 126.2,5.8 L114.9,45.2 C113.6,50.1 109.5,52.7 104.9,52.7 L80,52.7 C81.7,52.5 83.6,47.2 83.6,47.2"></path>
                    </g>
                    <rect id="Rectangle" x="51.1" y="0.7" width="27.6" height="52.1"></rect>
                </g>
            </g>
        </g>
    </g>
</svg>
