<?xml version="1.0" encoding="UTF-8"?>
<svg width="1000" height="1000" xmlns="http://www.w3.org/2000/svg" xmlns:svg="http://www.w3.org/2000/svg" xmlns:xlink="http://www.w3.org/1999/xlink">
 <defs>
  <linearGradient id="linearGradient3616">
   <stop offset="0" id="stop3618" stop-color="#000000"/>
   <stop offset="1" id="stop3620" stop-opacity="0" stop-color="#000000"/>
  </linearGradient>
  <linearGradient xlink:href="#linearGradient3616" id="linearGradient3710" x1="0.5857" y1="0.90294" x2="0.84076" y2="-0.16415"/>
 </defs>
 <metadata id="metadata7">image/svg+xml</metadata>
 <g>
  <title>Layer 1</title>
  <g id="layer1">
   <path transform="translate(5.61866) translate(5.61866) translate(2.37037) translate(2.37037) translate(-42.0924) translate(42.0924) translate(-42.0924) translate(42.0924) translate(-9.98872) translate(-9.98872) translate(-9.98872) translate(-17.7778, -5.33333) translate(149.333, -17.7778)" d="m227.886185,939.878418c-63.97168,-19.622375 -153.353027,-152.726929 -185.878036,-276.805359c-63.002598,-240.345978 96.430466,-442.972626 286.918976,-364.650696c52.172607,21.451477 56.298645,21.503845 117.945435,1.497437c110.549805,-35.877136 212.377869,-12.881378 248.000793,56.005829c10.845703,20.973297 9.355774,24.969177 -20.859802,55.944397c-78.18927,80.155029 -70.300476,204.558258 16.892761,266.393097c37.031921,26.261902 38.290283,40.529053 9.139771,103.621521c-64.878479,140.421082 -130.78595,180.907715 -238.233307,146.345581c-54.879913,-17.653015 -76.601807,-16.831665 -140.106812,5.297424c-45.943329,16.00946 -59.3685,16.918274 -93.819824,6.350769l0.000015,0l0.000031,0zm-96.07869,-444.290894c95.34671,-94.801544 -171.808136,17.042908 90.825699,-92.451721c65.287674,-27.219055 28.305573,-37.395325 -2.578369,-47.918549c-39.078979,-13.315582 292.708969,-59.624237 226.476303,-38.030975c-65.759155,21.438934 -130.030884,130.613831 -181.591187,168.698273c-157.879875,116.61618 -249.350592,-83.560638 -212.546833,122.956268c18.832272,105.674988 -36.095869,-57.193787 3.020992,-112.935089c22.954208,-32.709381 38.199356,37.657501 76.39341,-0.318176l-0.000015,-0.000031zm20.988251,86.830688c18.557739,-9.180542 -9.529739,-90.960144 7.680664,-105.262695c30.677811,-25.494507 79.46608,3.866425 143.928436,-87.858398c9.303925,-13.23877 62.183777,-29.00296 155.166382,30.141602c70.879395,45.085114 -143.779144,56.589386 -213.280365,137.895142c-78.181168,91.459961 -175.023712,65.416931 -93.495117,25.084351zm218.930725,-296.571045c-26.699585,-40.748642 38.711426,-150.512497 109.905701,-184.428841c70.36972,-33.523544 89.481964,-16.677635 66.285065,58.425026c-26.60199,86.12738 -146.252228,171.695862 -176.190765,126.003784l0,0.000031zm-112.919373,136.315582c22.013428,-14.369934 11.578705,-7.456909 20.525604,-12.479828c87.139221,-48.921051 32.756592,7.42392 15.400024,-8.353699c-13.894226,-12.630249 10.2547,3.888885 6.292694,7.747681c-19.472412,18.965027 18.128174,-45.685913 -5.910217,5.943909c-22.825134,49.024017 -90.891754,42.773071 -36.308136,7.141937l0.000031,0z" id="path3638" fill-rule="nonzero" fill="url(#linearGradient3710)"/>
  </g>
 </g>
</svg>