<svg xmlns="http://www.w3.org/2000/svg" viewBox="0 0 259.16 259.16"><defs><style>.cls-1{fill:#f1f1f0;}.cls-2{fill:#fba919;}</style></defs><title>connect</title><g id="Layer_2" data-name="Layer 2"><g id="Layer_1-2" data-name="Layer 1"><circle class="cls-1" cx="129.58" cy="129.58" r="129.58"/><path class="cls-2" d="M182.47,162.78l4.76-4.76-3.75-3.76L178.71,159l-5-5A50.12,50.12,0,0,0,180,129.58c0-.76-.08-1.49-.11-2.24a27.64,27.64,0,0,0,21.36-27H196A22.36,22.36,0,0,1,179.41,122a50.49,50.49,0,0,0-49.83-42.89c-.76,0-1.49.08-2.24.11a27.64,27.64,0,0,0-27-21.36v5.31A22.36,22.36,0,0,1,122,79.75a50.49,50.49,0,0,0-42.89,49.83c0,.76.08,1.49.11,2.24a27.63,27.63,0,0,0-21.36,27h5.31a22.35,22.35,0,0,1,16.57-21.64A50.36,50.36,0,0,0,154,173.7l5,5-4.76,4.77,3.75,3.75,4.77-4.76,25.36,25.37a13.93,13.93,0,0,0,19.7-19.7ZM174.19,123l-5.23.87a39.87,39.87,0,0,0-39.38-34.12l-.4,0-.88-5.27c.43,0,.85-.06,1.28-.06A45.17,45.17,0,0,1,174.19,123ZM129.58,95.05a34.53,34.53,0,1,1-34.53,34.53A34.57,34.57,0,0,1,129.58,95.05ZM123,85l.87,5.23a39.86,39.86,0,0,0-34.12,39.38c0,.13,0,.27,0,.4l-5.27.88c0-.43-.06-.85-.06-1.28A45.16,45.16,0,0,1,123,85Zm-38,51.2,5.23-.88a39.81,39.81,0,0,0,79.22-5.71c0-.14,0-.27,0-.4l5.26-.88c0,.43.07.85.07,1.28A45.12,45.12,0,0,1,85,136.17Zm73.64,34.62a51,51,0,0,0,12.18-12.18l4.17,4.17L162.78,175ZM198,206.6a8.55,8.55,0,0,1-6.09-2.52l-25.37-25.37,12.18-12.18,25.37,25.37A8.61,8.61,0,0,1,198,206.6Z"/><path class="cls-2" d="M188,95.05a23.9,23.9,0,1,0-23.9-23.9A23.93,23.93,0,0,0,188,95.05Zm-8-7.13V84.43a8,8,0,0,1,15.94,0v3.49a18.36,18.36,0,0,1-15.94,0Zm2.66-22.08A5.31,5.31,0,1,1,188,71.15,5.31,5.31,0,0,1,182.7,65.84ZM188,52.56a18.57,18.57,0,0,1,13.25,31.6,13.27,13.27,0,0,0-5.83-10.74,10.62,10.62,0,1,0-14.84,0,13.25,13.25,0,0,0-5.83,10.74A18.57,18.57,0,0,1,188,52.56Z"/><path class="cls-2" d="M71.15,95.05a23.9,23.9,0,1,0-23.9-23.9A23.93,23.93,0,0,0,71.15,95.05Zm-8-7.13V84.43a8,8,0,1,1,15.94,0v3.49a18.36,18.36,0,0,1-15.94,0Zm2.66-22.08a5.31,5.31,0,1,1,5.31,5.31A5.31,5.31,0,0,1,65.84,65.84Zm5.31-13.28A18.57,18.57,0,0,1,84.4,84.16a13.27,13.27,0,0,0-5.83-10.74,10.62,10.62,0,1,0-14.84,0A13.27,13.27,0,0,0,57.9,84.16a18.57,18.57,0,0,1,13.25-31.6Z"/><path class="cls-2" d="M71.15,164.11A23.9,23.9,0,1,0,95.05,188,23.93,23.93,0,0,0,71.15,164.11Zm-8,40.67v-3.49a8,8,0,1,1,15.94,0v3.49a18.36,18.36,0,0,1-15.94,0Zm2.66-22.08A5.31,5.31,0,1,1,71.15,188,5.31,5.31,0,0,1,65.84,182.7ZM84.4,201a13.27,13.27,0,0,0-5.83-10.74,10.62,10.62,0,1,0-14.84,0A13.27,13.27,0,0,0,57.9,201a18.59,18.59,0,1,1,26.5,0Z"/><path class="cls-2" d="M100.36,124.27v18.59h58.43V113.64H142.86v23.91h-5.31V103H121.61v34.53H116.3V124.27Zm5.32,5.31H111v8h-5.31ZM148.17,119h5.31v18.59h-5.31Zm-21.25-10.63h5.31v29.22h-5.31Z"/></g></g></svg>