<svg xmlns="http://www.w3.org/2000/svg" viewBox="0 0 259.16 259.16"><defs><style>.cls-1{fill:#f1f1f0;}.cls-2{fill:#fba919;}</style></defs><title>empower</title><g id="Layer_2" data-name="Layer 2"><g id="Layer_1-2" data-name="Layer 1"><circle class="cls-1" cx="129.58" cy="129.58" r="129.58"/><path class="cls-2" d="M210.14,122.48q-.09-1-.21-2c-.15-1.32-.34-2.64-.56-4a80.25,80.25,0,0,0-1.71-7.88q-1-3.93-2.46-7.69a80.16,80.16,0,0,0-35.15-41.48l-.11-.06c-.54-.32-1.09-.62-1.64-.92l-.34-.19c-.58-.3-1.16-.61-1.74-.9l-.28-.14c-1.27-.64-2.56-1.25-3.87-1.82h0a80.87,80.87,0,0,0-64.69,0h0l-.17.07L96,56l-.46.22-.89.41-.5.24-.86.43-.48.24-1,.5-.33.18c-.43.23-.86.46-1.28.7l-.36.2-.93.53-.47.27-.81.49c-.17.09-.33.19-.49.29l-.82.51-.44.27-1.12.74-.13.08-1.19.8-.41.29-.8.57-.46.33-.75.55-.45.34-.81.62-.36.29c-.38.29-.76.6-1.14.9l-.3.25-.83.69-.43.37-.7.61-.44.39-.69.62-.41.38-.83.77-.25.24-1,1-.36.36-.68.7-.41.42-.62.66c-.14.15-.28.29-.41.44l-.65.71-.35.4-1,1.08-.23.28-.73.86-.36.45-.58.72-.37.48-.56.72-.36.48c-.21.27-.41.55-.62.83l-.27.37L63,83.51l-.28.41c-.19.28-.38.55-.56.83l-.34.51c-.16.25-.33.5-.49.76l-.33.52c-.17.27-.33.54-.5.8l-.3.49c-.22.37-.44.74-.65,1.11l-.1.17a80.3,80.3,0,0,0-10,51.53,84.9,84.9,0,0,0,2,9.86c.7,2.62,1.53,5.18,2.46,7.69a80.22,80.22,0,0,0,35.16,41.48l.11.06,1.64.92.34.18c.57.31,1.15.61,1.73.91l.28.14c1.28.64,2.57,1.25,3.87,1.82h0a80.61,80.61,0,0,0,32.25,6.74,81.61,81.61,0,0,0,32.44-6.74h0l.16-.08,1.17-.51.46-.22.89-.41.5-.24.86-.43.47-.24,1-.51.33-.17c.43-.23.86-.46,1.28-.7l.36-.2.93-.53.47-.27.81-.49.48-.29c.28-.17.56-.34.83-.52l.43-.27,1.13-.73.13-.08c.39-.27.79-.53,1.18-.81l.42-.29.79-.56.47-.33.75-.56.45-.33.81-.63.36-.28,1.13-.9.3-.25.84-.7.42-.36.71-.61.44-.39.69-.62.41-.38c.28-.25.55-.51.83-.78l.25-.23c.35-.33.69-.67,1-1l.37-.37c.22-.23.45-.45.67-.69l.42-.43c.21-.21.41-.43.62-.65s.27-.3.41-.44l.64-.71.36-.4.95-1.09.22-.26c.25-.29.49-.58.73-.88l.37-.44.57-.72.38-.48.56-.73.36-.47.61-.83.27-.37c.29-.39.57-.79.84-1.19l.29-.41.56-.83.33-.51.5-.76.33-.52.5-.81c.09-.16.19-.32.29-.48.23-.37.45-.74.66-1.12a1.4,1.4,0,0,0,.1-.16,80.12,80.12,0,0,0,10.81-39.66Q210.5,126.45,210.14,122.48Zm-16.31,44.19a73.73,73.73,0,0,1-25.15,25.85h0l-1,.62,0,0-1,.59-.1.05-1,.54-.13.07-.93.5-.24.13-.83.43-.27.14-.81.4-.28.14-.8.38-.34.16-.76.35-.33.15-.77.34-.39.17-.72.3-.44.18-.68.27-.44.17-.69.27-.48.18-.66.24-.53.18-.61.22-.55.18-.6.2-.58.18-.57.18-.65.19-.52.15-.7.2-.46.13-.72.19-.46.12-.76.18-.42.11-.78.17-.41.09-.83.18-.36.07-.87.17-.33.07-.91.15-.29.06-.94.15-.27,0-1,.14-.26,0-1,.13-.21,0-1.05.12-.18,0-1.06.09-.16,0-1.1.08h-.13l-1.13.07h-.1l-1.15,0h-.09l-1.2,0h-1.36c-.81,0-1.62,0-2.42,0h0l-1.2,0h-.07l-1.13-.06h-.06l-1.15-.08h-.11l-1.09-.1-.17,0-1-.11-.24,0-1-.12-.3,0-.89-.13-.39-.06-.8-.12-.5-.09-.68-.12-.62-.12-.56-.1-.71-.15-.47-.1-.85-.19-.32-.07-1-.24-.19,0a74.1,74.1,0,0,1-50.12-101A73.66,73.66,0,0,1,91.5,66l0,0,1-.58.09-.05,1-.54.09,0,1-.53.15-.08.92-.47.19-.1.88-.44L97,63l.84-.41.3-.13.8-.37.33-.15.77-.34.4-.17.71-.3.45-.18.67-.28.44-.17.69-.26.48-.18.65-.24.51-.18.63-.22.54-.18.61-.2.59-.18.57-.18.65-.19.51-.16.69-.19.48-.13.71-.19.47-.12.73-.18.45-.11.76-.17.43-.1.83-.17.36-.08.86-.16.34-.07.91-.16.29-.05.94-.15.27,0,1-.14.25,0,1-.13.22,0,1.05-.11.17,0,1.07-.1h.16l1.09-.08h.14l1.13-.07h.1l1.14,0h.1l1.2,0h1.36c.81,0,1.61,0,2.42,0h0l1.2,0h0l1.17.07h.06l1.14.08H136l1.08.1h.14l1.06.12.24,0c.32,0,.64.07,1,.12l.3,0,.9.12.35.06.83.13.45.08.74.13.59.11.59.11.68.14.5.11.78.17.39.09.92.23.24,0,1.06.28.11,0a74.14,74.14,0,0,1,44.94,108.7Z"/><path class="cls-2" d="M113.87,188.21A60.85,60.85,0,0,1,71,145.29,3.38,3.38,0,0,0,64.43,147a67.64,67.64,0,0,0,47.69,47.69,3.32,3.32,0,0,0,.88.11,3.37,3.37,0,0,0,.87-6.63Z"/><path class="cls-2" d="M147,64.43A3.37,3.37,0,1,0,145.29,71a60.85,60.85,0,0,1,42.92,42.92,3.38,3.38,0,0,0,3.26,2.5,3.26,3.26,0,0,0,.87-.12,3.37,3.37,0,0,0,2.39-4.13A67.64,67.64,0,0,0,147,64.43Z"/><path class="cls-2" d="M127.56,190.25c-.84,0-1.69-.08-2.52-.14a3.37,3.37,0,0,0-.51,6.73c.93.07,1.87.12,2.81.15h.11a3.37,3.37,0,0,0,.11-6.74Z"/><path class="cls-2" d="M131.59,68.91c.84,0,1.69.08,2.53.14h.26a3.37,3.37,0,0,0,.24-6.74c-.93-.07-1.87-.12-2.8-.15a3.37,3.37,0,0,0-.23,6.74Z"/><path class="cls-2" d="M159.09,97.16a10.92,10.92,0,0,0-7.75,3.2l-35.18,35.18-8.35-8.35a11,11,0,0,0-15.5,15.51l16.13,16.12.14.13.07.07.14.14.06.05.15.13.06,0,.15.13.06,0,.15.12a.46.46,0,0,1,.07.07l.16.11.07,0,.16.11.06,0,.16.1.06.05.16.1.07.05.17.09.08,0,.16.09.06,0,.17.09.07,0,.16.09.09,0,.16.08.08,0,.17.08.07,0,.18.07.06,0,.17.07.09,0,.17.06.09,0,.17.06.07,0,.18.06.08,0,.18.05.06,0,.17,0,.11,0,.18,0h.06l.17,0,.1,0,.1,0,.17,0,.18,0h.06l.18,0,.09,0h.24l.18,0H117l.18,0h.25l.09,0,.19,0h.06l.18,0a.41.41,0,0,0,.16,0h.1l.1,0,.18,0h.07l.18-.05h.08l.17-.05.08,0,.17-.05.09,0,.17-.06.08,0,.17-.06.09,0,.17-.06.07,0,.17-.06.09,0,.17-.07,0,0,.17-.08.1,0,.17-.08.07,0,.16-.08.08,0,.16-.09.07,0,.16-.09.08,0,.16-.1.08,0,.16-.11,0,0,.16-.11.07,0,.15-.11.08,0,.15-.12.08-.06.15-.12,0,0,.15-.12.12-.11.09-.08a.12.12,0,0,0,0-.05l.15-.13.07-.07.14-.13.08-.08,42.88-42.89a11,11,0,0,0-7.75-18.7Zm3,13.94-43,43-.24.21-.58.41-.65.31-.81.22-.69.05h-.1l-.71-.08-.69-.19-.73-.36-.6-.45L97.08,137.93a4.22,4.22,0,0,1,6-6l10.73,10.74a3.39,3.39,0,0,0,4.77,0l37.56-37.57a4.22,4.22,0,0,1,6,6Z"/></g></g></svg>