<svg xmlns="http://www.w3.org/2000/svg" viewBox="0 0 259.16 259.16"><defs><style>.cls-1{fill:#f1f1f0;}.cls-2{fill:#fba919;}</style></defs><title>reward</title><g id="Layer_2" data-name="Layer 2"><g id="Layer_1-2" data-name="Layer 1"><circle class="cls-1" cx="129.58" cy="129.58" r="129.58"/><path class="cls-2" d="M157.4,150.63H138.33l-5.88-18.13a3,3,0,0,0-5.73,0l-5.9,18.13H101.76a3,3,0,0,0-1.77,5.45l15.43,11.21-5.89,18.13a3,3,0,0,0,4.63,3.37l15.42-11.2L145,188.79a3,3,0,0,0,4.63-3.37l-5.9-18.13,15.42-11.21a3,3,0,0,0-1.76-5.45Zm-19,13.07a3,3,0,0,0-1.1,3.37L141,178.46l-9.68-7a3,3,0,0,0-3.54,0l-9.68,7,3.7-11.39a3,3,0,0,0-1.1-3.37l-9.7-7h12a3,3,0,0,0,2.87-2.08l3.7-11.4,3.7,11.4a3,3,0,0,0,2.87,2.08h12Z"/><path class="cls-2" d="M132.59,99.56V93.38h27.12a9,9,0,0,0,9-9v-3h9a9,9,0,0,0,9-9V42.15a3,3,0,0,0-3-3H75.34a3,3,0,0,0-3,3V72.29a9,9,0,0,0,9.05,9h9v3a9,9,0,0,0,9,9h27.13v6.18a60.27,60.27,0,1,0,6,0Zm27.12-12.21h-9V45.17h12.06V84.34a3,3,0,0,1-3,3Zm21.1-15.06a3,3,0,0,1-3,3h-9V45.17h12.06ZM144.65,45.17V87.35H114.51V45.17ZM81.37,75.3a3,3,0,0,1-3-3V45.17H90.41V75.3Zm15.06,9V45.17h12.06V87.35h-9a3,3,0,0,1-3-3Zm33.15,129.57a54.24,54.24,0,1,1,54.24-54.24,54.23,54.23,0,0,1-54.24,54.24Z"/><path class="cls-2" d="M129.58,108.45a51.23,51.23,0,1,0,51.23,51.22,51.23,51.23,0,0,0-51.23-51.22Zm0,96.42a45.2,45.2,0,1,1,45.2-45.2,45.2,45.2,0,0,1-45.2,45.2Z"/></g></g></svg>