<?xml version="1.0" encoding="utf-8"?>
<!-- Generator: Adobe Illustrator 24.0.3, SVG Export Plug-In . SVG Version: 6.00 Build 0)  -->
<svg version="1.1" id="Laag_1" xmlns="http://www.w3.org/2000/svg" xmlns:xlink="http://www.w3.org/1999/xlink" x="0px" y="0px"
	 viewBox="0 0 36 35.9" style="enable-background:new 0 0 36 35.9;" xml:space="preserve">
<style type="text/css">
	.st0{fill:#FFFFFF;}
</style>
<g id="Group-3_1_">
	<path class="st0" d="M18,35.9c0,0-0.1,0-0.1,0c-4.8,0-9.4-1.9-12.7-5.4C1.8,27.1,0,22.6,0,17.8C0.1,7.9,8.2-0.1,18,0
		c4.8,0,9.3,1.8,12.7,5.2C34.1,8.7,36,13.2,36,18c0,4.8-1.9,9.3-5.3,12.7C27.3,34,22.8,35.9,18,35.9z M17.9,2C9.2,2,2.1,9.1,2,17.8
		c0,4.3,1.6,8.3,4.6,11.3c3,3.1,7,4.8,11.3,4.8c0,0,0.1,0,0.1,0c4.3,0,8.3-1.6,11.3-4.6c3.1-3,4.7-7,4.7-11.3
		c0-4.2-1.7-8.3-4.7-11.3c-3-3-7-4.7-11.3-4.7h0C18,2,18,2,17.9,2z"/>
</g>
<path class="st0" d="M18,12.1c1.9,0,2.1,0,2.9,0c1.9,0.1,2.8,1,2.9,2.9c0,0.8,0,1,0,2.9c0,1.9,0,2.1,0,2.9c-0.1,1.9-1,2.8-2.9,2.9
	c-0.8,0-1,0-2.9,0c-1.9,0-2.1,0-2.9,0c-1.9-0.1-2.8-1-2.9-2.9c0-0.8,0-1,0-2.9c0-1.9,0-2.1,0-2.9c0.1-1.9,1-2.8,2.9-2.9
	C15.9,12.1,16.1,12.1,18,12.1z M18,10.8c-1.9,0-2.2,0-2.9,0c-2.6,0.1-4,1.6-4.2,4.2c0,0.8,0,1,0,2.9s0,2.2,0,2.9
	c0.1,2.6,1.6,4,4.2,4.2c0.8,0,1,0,2.9,0s2.2,0,2.9,0c2.6-0.1,4-1.6,4.2-4.2c0-0.8,0-1,0-2.9s0-2.2,0-2.9c-0.1-2.6-1.6-4-4.2-4.2
	C20.2,10.8,20,10.8,18,10.8z M18,14.3c-2,0-3.7,1.6-3.7,3.7s1.6,3.7,3.7,3.7s3.7-1.6,3.7-3.7C21.7,15.9,20,14.3,18,14.3z M18,20.3
	c-1.3,0-2.4-1.1-2.4-2.4c0-1.3,1.1-2.4,2.4-2.4c1.3,0,2.4,1.1,2.4,2.4C20.4,19.3,19.3,20.3,18,20.3z M21.8,13.3
	c-0.5,0-0.9,0.4-0.9,0.9s0.4,0.9,0.9,0.9c0.5,0,0.9-0.4,0.9-0.9S22.3,13.3,21.8,13.3z"/>
</svg>
