<?xml version="1.0" encoding="utf-8"?>
<!-- Generator: Adobe Illustrator 24.0.3, SVG Export Plug-In . SVG Version: 6.00 Build 0)  -->
<svg version="1.1" id="Laag_1" xmlns="http://www.w3.org/2000/svg" xmlns:xlink="http://www.w3.org/1999/xlink" x="0px" y="0px"
	 viewBox="0 0 36 35.9" style="enable-background:new 0 0 36 35.9;" xml:space="preserve">
<style type="text/css">
	.st0{fill:#FFFFFF;}
</style>
<g id="Group-3_2_">
	<path class="st0" d="M18,35.9c0,0-0.1,0-0.1,0c-4.8,0-9.4-1.9-12.7-5.4C1.8,27.1,0,22.6,0,17.8C0.1,7.9,8.2-0.1,18,0
		c4.8,0,9.3,1.8,12.7,5.2C34.1,8.7,36,13.2,36,18c0,4.8-1.9,9.3-5.3,12.7C27.3,34,22.8,35.9,18,35.9z M17.9,2C9.2,2,2.1,9.1,2,17.8
		c0,4.3,1.6,8.3,4.6,11.3c3,3.1,7,4.8,11.3,4.8c0,0,0.1,0,0.1,0c4.3,0,8.3-1.6,11.3-4.6c3.1-3,4.7-7,4.7-11.3
		c0-4.2-1.7-8.3-4.7-11.3c-3-3-7-4.7-11.3-4.7h0C18,2,18,2,17.9,2z"/>
</g>
<path class="st0" d="M13.6,12.3c0,0.9-0.7,1.6-1.6,1.6c-0.9,0-1.6-0.7-1.6-1.6c0-0.9,0.7-1.6,1.6-1.6C12.9,10.7,13.6,11.4,13.6,12.3
	z M13.6,15.1h-3.1v10h3.1V15.1z M18.6,15.1h-3.1v10h3.1v-5.3c0-2.9,3.8-3.2,3.8,0v5.3h3.1v-6.3c0-4.9-5.6-4.8-6.9-2.3
	C18.6,16.5,18.6,15.1,18.6,15.1z"/>
</svg>
