<svg width="22" height="22" viewBox="0 0 22 22" fill="none" xmlns="http://www.w3.org/2000/svg">
<mask id="mask0" mask-type="alpha" maskUnits="userSpaceOnUse" x="0" y="0" width="22" height="22">
<path fill-rule="evenodd" clip-rule="evenodd" d="M0 0H21.244V21.7473H0V0Z" fill="white"/>
</mask>
<g mask="url(#mask0)">
<path fill-rule="evenodd" clip-rule="evenodd" d="M10.6221 0C7.73726 0 7.37538 0.0123735 6.24248 0.0652419C5.11215 0.11811 4.34003 0.302213 3.66425 0.570679C2.96576 0.848895 2.37312 1.22047 1.78268 1.8249C1.19224 2.42932 0.828888 3.036 0.557476 3.75104C0.294854 4.44283 0.115378 5.23323 0.0637324 6.39034C0.0120872 7.55044 0 7.92052 0 10.8737C0 13.8268 0.0120872 14.1969 0.0637324 15.357C0.115378 16.5141 0.294854 17.3045 0.557476 17.9963C0.828888 18.7113 1.19224 19.318 1.78268 19.9224C2.37312 20.5268 2.96576 20.8984 3.66425 21.1766C4.34003 21.4451 5.11215 21.6292 6.24248 21.6817C7.37538 21.7349 7.73726 21.7473 10.6221 21.7473C13.5069 21.7473 13.8684 21.7349 15.0017 21.6817C16.132 21.6292 16.9041 21.4451 17.5799 21.1766C18.2784 20.8984 18.8707 20.5268 19.4611 19.9224C20.0519 19.318 20.4149 18.7113 20.6867 17.9963C20.9489 17.3045 21.1288 16.5141 21.18 15.357C21.2317 14.1969 21.2441 13.8268 21.2441 10.8737C21.2441 7.92052 21.2317 7.55044 21.18 6.39034C21.1288 5.23323 20.9489 4.44283 20.6867 3.75104C20.4149 3.036 20.0519 2.42932 19.4611 1.8249C18.8707 1.22047 18.2784 0.848895 17.5799 0.570679C16.9041 0.302213 16.132 0.11811 15.0017 0.0652419C13.8684 0.0123735 13.5069 0 10.6221 0Z" fill="black"/>
</g>
<path fill-rule="evenodd" clip-rule="evenodd" d="M14.6511 21.7473V13.3369H17.4239L17.8377 10.0448H14.6511V7.94875C14.6511 6.99635 14.9112 6.35142 16.2444 6.35142H17.9476V3.41173C17.1261 3.32474 16.3008 3.28236 15.4753 3.28424C13.0249 3.28424 11.3546 4.81408 11.3546 7.62254V10.0448H8.58923V13.3369H11.3546V21.7473H14.6511Z" fill="white"/>
</svg>
