<?xml version="1.0" encoding="UTF-8"?>
<svg width="24px" height="24px" viewBox="0 0 24 24" version="1.1" xmlns="http://www.w3.org/2000/svg" xmlns:xlink="http://www.w3.org/1999/xlink">
    <!-- Generator: Sketch 50 (54983) - http://www.bohemiancoding.com/sketch -->
    <title>Instagram</title>
    <desc>Created with Sketch.</desc>
    <defs></defs>
    <g id="Design" stroke="none" stroke-width="1" fill="none" fill-rule="evenodd">
        <g id="06_Download" transform="translate(-1123.000000, -674.000000)" fill="#FFFFFF">
            <g id="Instagram" transform="translate(1123.000000, 674.000000)">
                <path d="M11.9962143,4.76190477e-06 C8.7382619,4.76190477e-06 8.32969048,0.0138142857 7.05021429,0.0721952381 C5.77330952,0.130433333 4.90130952,0.333242857 4.13821429,0.629814286 C3.34940476,0.936338095 2.68035714,1.34652857 2.01345238,2.01343333 C1.3465,2.68038571 0.936357143,3.34938571 0.629785714,4.13819524 C0.333214286,4.90129048 0.130452381,5.77329048 0.0721666667,7.05019524 C0.0137857143,8.32971905 2.38095238e-05,8.73819524 2.38095238e-05,11.9961952 C2.38095238e-05,15.2541952 0.0137857143,15.662719 0.0721666667,16.9422429 C0.130452381,18.2191 0.333214286,19.0911476 0.629785714,19.8541952 C0.936357143,20.6430048 1.3465,21.3120524 2.01345238,21.9789571 C2.68035714,22.6459095 3.34940476,23.0560524 4.13821429,23.3626714 C4.90130952,23.6591952 5.77330952,23.8620048 7.05021429,23.9202905 C8.32969048,23.9786238 8.7382619,23.9924333 11.9962143,23.9924333 C15.2542143,23.9924333 15.6626905,23.9786238 16.9422143,23.9202905 C18.219119,23.8620048 19.091119,23.6591952 19.8542143,23.3626714 C20.6430714,23.0560524 21.3120714,22.6459095 21.9789762,21.9789571 C22.6459286,21.3120524 23.0560714,20.6430524 23.3626429,19.8541952 C23.6592143,19.0911476 23.8620238,18.2191 23.9202619,16.9422429 C23.9786429,15.662719 23.9924524,15.2541952 23.9924524,11.9961952 C23.9924524,8.73824286 23.9786429,8.32971905 23.9202619,7.05019524 C23.8620238,5.77329048 23.6592143,4.90129048 23.3626429,4.13819524 C23.0560714,3.34938571 22.6459286,2.68038571 21.9789762,2.01343333 C21.3120714,1.34652857 20.6430714,0.936338095 19.8542143,0.629814286 C19.091119,0.333242857 18.219119,0.130433333 16.9422143,0.0721952381 C15.6626905,0.0138142857 15.2542143,4.76190477e-06 11.9962143,4.76190477e-06 M11.9962143,2.16148095 C15.1993571,2.16148095 15.5787381,2.17367143 16.8436905,2.23138571 C18.0133095,2.28476667 18.6485,2.48019524 19.0712143,2.64448095 C19.6311667,2.8621 20.0308333,3.12205238 20.4505952,3.54181429 C20.8703571,3.96162381 21.1303095,4.36124286 21.3479762,4.92119524 C21.5122143,5.34390952 21.7076429,5.9791 21.7610238,7.14871905 C21.8186905,8.41367143 21.8309286,8.7931 21.8309286,11.9961952 C21.8309286,15.1993381 21.8186905,15.5787667 21.7610238,16.8436714 C21.7076429,18.0133381 21.5122143,18.6485286 21.3479762,19.0712429 C21.1303095,19.6311476 20.8703571,20.0308143 20.4505952,20.4505762 C20.0308333,20.8703857 19.6311667,21.1303381 19.0712143,21.3479571 C18.6485,21.5121952 18.0133095,21.7076714 16.8436905,21.7610048 C15.5789286,21.818719 15.1995952,21.8309571 11.9962143,21.8309571 C8.79283333,21.8309571 8.4135,21.818719 7.1487381,21.7610048 C5.97911905,21.7076714 5.34388095,21.5121952 4.92116667,21.3479571 C4.3612619,21.1303381 3.96159524,20.8703857 3.54183333,20.4505762 C3.12207143,20.0308143 2.86207143,19.6311476 2.64445238,19.0712429 C2.48021429,18.6485286 2.28478571,18.0133381 2.23140476,16.843719 C2.17369048,15.5787667 2.1615,15.1993381 2.1615,11.9961952 C2.1615,8.7931 2.17369048,8.41367143 2.23140476,7.14871905 C2.28478571,5.9791 2.48021429,5.34390952 2.64445238,4.92119524 C2.86207143,4.36124286 3.12207143,3.96162381 3.54183333,3.5418619 C3.96159524,3.12205238 4.3612619,2.8621 4.92116667,2.64448095 C5.34388095,2.48019524 5.97911905,2.28476667 7.14869048,2.23138571 C8.41369048,2.17367143 8.79307143,2.16148095 11.9962143,2.16148095" id="Fill-1"></path>
                <path d="M11.9962143,15.9949571 C9.78778571,15.9949571 7.99745238,14.2046238 7.99745238,11.9961952 C7.99745238,9.78776667 9.78778571,7.99748095 11.9962143,7.99748095 C14.2046429,7.99748095 15.9949762,9.78776667 15.9949762,11.9961952 C15.9949762,14.2046238 14.2046429,15.9949571 11.9962143,15.9949571 M11.9962143,5.83600476 C8.59402381,5.83600476 5.83597619,8.59400476 5.83597619,11.9961952 C5.83597619,15.3984333 8.59402381,18.1564333 11.9962143,18.1564333 C15.3984048,18.1564333 18.1564048,15.3984333 18.1564048,11.9961952 C18.1564048,8.59400476 15.3984048,5.83600476 11.9962143,5.83600476" id="Fill-4"></path>
                <path d="M19.8393619,5.59261429 C19.8393619,6.3876619 19.1948857,7.0321381 18.3998381,7.0321381 C17.6047905,7.0321381 16.9602667,6.3876619 16.9602667,5.59261429 C16.9602667,4.79756667 17.6047905,4.15309048 18.3998381,4.15309048 C19.1948857,4.15309048 19.8393619,4.79756667 19.8393619,5.59261429" id="Fill-6"></path>
            </g>
        </g>
    </g>
</svg>