<?xml version="1.0" encoding="UTF-8"?>
<svg width="20px" height="20px" viewBox="0 0 20 20" version="1.1" xmlns="http://www.w3.org/2000/svg" xmlns:xlink="http://www.w3.org/1999/xlink">
    <!-- Generator: Sketch 50 (54983) - http://www.bohemiancoding.com/sketch -->
    <title>LinkedIn</title>
    <desc>Created with Sketch.</desc>
    <defs></defs>
    <g id="Design" stroke="none" stroke-width="1" fill="none" fill-rule="evenodd">
        <g id="06_Download" transform="translate(-1173.000000, -675.000000)" fill="#FFFFFF">
            <path d="M1193,694.963519 L1188.85594,694.963519 L1188.85594,688.479256 C1188.85594,686.932317 1188.82955,684.94295 1186.7028,684.94295 C1184.54578,684.94295 1184.21745,686.628828 1184.21745,688.368262 L1184.21745,694.963519 L1180.07805,694.963519 L1180.07805,681.628634 L1184.05057,681.628634 L1184.05057,683.451896 L1184.10723,683.451896 C1184.65988,682.403268 1186.01199,681.297978 1188.02852,681.297978 C1192.22459,681.297978 1193,684.058874 1193,687.650289 L1193,694.963519 Z M1175.40463,679.806924 C1174.07347,679.806924 1173,678.730353 1173,677.403074 C1173,676.076571 1174.07347,675 1175.40463,675 C1176.73035,675 1177.80692,676.076571 1177.80692,677.403074 C1177.80692,678.730353 1176.73035,679.806924 1175.40463,679.806924 Z M1173.3291,694.963519 L1177.47782,694.963519 L1177.47782,681.628634 L1173.3291,681.628634 L1173.3291,694.963519 Z" id="LinkedIn"></path>
        </g>
    </g>
</svg>