<?xml version="1.0" encoding="UTF-8"?>
<!DOCTYPE svg PUBLIC "-//W3C//DTD SVG 1.1//EN" "http://www.w3.org/Graphics/SVG/1.1/DTD/svg11.dtd">
<!-- Creator: CorelDRAW X6 -->
<svg xmlns="http://www.w3.org/2000/svg" xml:space="preserve" width="3.15278in" height="0.97222in" version="1.1" style="shape-rendering:geometricPrecision; text-rendering:geometricPrecision; image-rendering:optimizeQuality; fill-rule:evenodd; clip-rule:evenodd"
viewBox="0 0 3153 972"
 xmlns:xlink="http://www.w3.org/1999/xlink">
 <defs>
  <style type="text/css">
   <![CDATA[
    .fil1 {fill:#ffffff;fill-rule:nonzero}
    .fil0 {fill:#ffffff;fill-rule:nonzero}
   ]]>
  </style>
 </defs>
 <g id="Layer_x0020_1">
  <metadata id="CorelCorpID_0Corel-Layer"/>
  <polygon class="fil0" points="296,574 358,574 358,584 307,584 307,621 353,621 353,631 307,631 307,676 296,676 "/>
  <path class="fil0" d="M383 600l11 0 0 76 -11 0 0 -76zm-1 -28l12 0 0 12 -12 0 0 -12z"/>
  <path class="fil0" d="M424 600l11 0 0 12c4,-8 11,-14 23,-14 16,0 25,11 25,28l0 50 -11 0 0 -47c0,-14 -6,-21 -18,-21 -11,0 -19,9 -19,22l0 46 -11 0 0 -76z"/>
  <path class="fil0" d="M553 650l0 -10c-5,-2 -11,-3 -18,-3 -12,0 -19,6 -19,16l0 0c0,10 7,16 16,16 12,0 21,-8 21,-19zm-48 4l0 -1c0,-16 11,-25 28,-25 8,0 14,1 20,3l0 -5c0,-12 -7,-19 -19,-19 -8,0 -14,2 -19,5l-3 -9c7,-4 15,-6 24,-6 9,0 16,3 21,8 5,5 7,12 7,21l0 49 -10 0 0 -11c-5,7 -12,13 -23,13 -13,0 -24,-9 -24,-24z"/>
  <path class="fil0" d="M591 600l11 0 0 12c4,-8 11,-14 23,-14 16,0 25,11 25,28l0 50 -11 0 0 -47c0,-14 -6,-21 -18,-21 -11,0 -19,9 -19,22l0 46 -11 0 0 -76z"/>
  <path class="fil0" d="M673 639l0 -1c0,-23 15,-39 34,-39 11,0 18,5 24,10l-6 8c-5,-5 -10,-9 -18,-9 -13,0 -23,12 -23,30l0 1c0,18 11,30 23,30 7,0 13,-4 18,-9l6 7c-6,6 -13,11 -25,11 -19,0 -34,-16 -34,-39z"/>
  <path class="fil0" d="M800 634c-1,-15 -8,-26 -20,-26 -11,0 -20,10 -21,26l41 0zm-52 5l0 -1c0,-23 14,-40 31,-40 19,0 31,16 31,39 0,1 0,3 0,4l-51 0c1,17 12,26 24,26 8,0 14,-4 20,-9l6 7c-7,7 -15,11 -26,11 -19,0 -34,-15 -34,-39z"/>
  <path class="fil1" d="M296 451l118 0 0 -30 -84 0 0 -33 73 0 0 -30 -73 0 0 -31 83 0 0 -30 -117 0 0 155zm149 0l34 0 0 -50 27 0 33 50 40 0 -38 -55c20,-7 33,-23 33,-48l0 0c0,-15 -5,-27 -13,-35 -10,-10 -25,-16 -45,-16l-71 0 0 155zm34 -80l0 -45 34 0c17,0 27,8 27,22l0 0c0,13 -10,22 -26,22l-35 0zm164 81l30 0 35 -102 35 102 30 0 53 -156 -36 0 -32 105 -35 -106 -29 0 -35 106 -32 -105 -37 0 53 156zm209 -1l34 0 0 -155 -34 0 0 155zm73 0l34 0 0 -99 75 99 29 0 0 -155 -34 0 0 96 -73 -96 -31 0 0 155zm242 0l34 0 0 -62 63 0 0 62 34 0 0 -155 -34 0 0 61 -63 0 0 -61 -34 0 0 155zm212 0l34 0 0 -62 60 -93 -39 0 -38 62 -37 -62 -40 0 60 94 0 61zm115 0l33 0 0 -101 43 66 1 0 44 -66 0 101 34 0 0 -155 -37 0 -41 66 -41 -66 -37 0 0 155zm192 0l118 0 0 -30 -84 0 0 -33 73 0 0 -30 -73 0 0 -31 83 0 0 -30 -117 0 0 155zm149 0l34 0 0 -50 27 0 33 50 40 0 -38 -55c20,-7 33,-23 33,-48l0 0c0,-15 -5,-27 -13,-35 -10,-10 -26,-16 -45,-16l-71 0 0 155zm34 -80l0 -45 34 0c17,0 27,8 27,22l0 0c0,13 -10,22 -26,22l-35 0zm256 82c28,0 50,-11 66,-25l0 -67 -67 0 0 29 34 0 0 22c-9,6 -20,9 -32,9 -27,0 -47,-21 -47,-49l0 0c0,-26 20,-48 45,-48 18,0 29,6 41,16l22 -26c-16,-14 -33,-21 -61,-21 -47,0 -81,36 -81,80l0 0c0,46 33,80 82,80zm99 -3l34 0 0 -50 27 0 33 50 40 0 -38 -55c20,-7 33,-23 33,-48l0 0c0,-15 -5,-27 -13,-35 -10,-10 -26,-16 -45,-16l-71 0 0 155zm34 -80l0 -45 34 0c17,0 27,8 27,22l0 0c0,13 -10,22 -26,22l-35 0zm202 82c48,0 83,-36 83,-80l0 0c0,-44 -34,-80 -82,-80 -48,0 -83,36 -83,80l0 0c0,44 34,80 82,80zm0 -31c-28,0 -47,-22 -47,-49l0 0c0,-27 19,-48 47,-48 27,0 47,22 47,49l0 0c0,27 -19,48 -47,48zm177 31c42,0 68,-23 68,-70l0 -88 -34 0 0 89c0,25 -13,37 -33,37 -21,0 -33,-13 -33,-38l0 -88 -34 0 0 89c0,46 26,69 67,69zm103 -2l34 0 0 -47 26 0c35,0 63,-19 63,-55l0 0c0,-32 -22,-54 -59,-54l-63 0 0 155zm34 -77l0 -47 26 0c17,0 28,8 28,24l0 0c0,13 -10,24 -27,24l-27 0z"/>
 </g>
</svg>
