<?xml version="1.0" encoding="utf-8"?>
<!-- Generator: Adobe Illustrator 22.1.0, SVG Export Plug-In . SVG Version: 6.00 Build 0)  -->
<svg version="1.1" id="Laag_1" xmlns="http://www.w3.org/2000/svg" xmlns:xlink="http://www.w3.org/1999/xlink" x="0px" y="0px"
	 viewBox="0 0 2834.6 1417.3" style="enable-background:new 0 0 2834.6 1417.3;" xml:space="preserve">
<style type="text/css">
	.st0{fill:#FFFFFF;}
</style>
<g>
	<path class="st0" d="M390.8,377.9c38,2.7,76,1,114.1,0.9c11.6,0,16.1,2.9,18.4,14.8c13.3,68.4,27.7,136.6,41.7,204.8
		c0.3,1.6,0.9,3.2,2.1,7.4c6.9-14.8,8-28.6,10.9-41.8c12.5-57.5,24.4-115.1,36.3-172.7c1.8-8.5,4.2-12.9,14.6-12.6
		c34.9,0.9,69.8,0.6,104.7,0.2c8.5-0.1,11.6,1.8,11.6,11.2c-0.3,122.9-0.3,245.8,0,368.6c0,9.3-3,11.2-11.5,11
		c-21.3-0.6-42.6-0.9-63.9,0.1c-10.9,0.5-12.4-3.4-12-13.1c3.1-89.7,5.7-179.5,8.4-269.2c0.1-4.2,1.6-8.6-2-14.4
		c-8.8,41.6-17.3,81.7-25.8,121.8c-11.6,54.9-23.5,109.7-34.6,164.7c-1.6,8.1-4.5,10.3-12.3,10.1c-15.9-0.6-31.8-0.7-47.6,0
		c-8.8,0.4-11.1-2.9-12.8-11.1c-18.4-90.9-37.3-181.7-56-272.6c-1.1-5.2-2.2-10.5-5.2-15.7c0,6.2-0.2,12.4,0,18.6
		c2.5,88.8,4.9,177.7,7.8,266.5c0.4,11-1.6,14.8-13.5,14.4c-24.4-1-49-0.2-73.4-0.1C390.8,639.1,390.8,508.5,390.8,377.9z"/>
	<path class="st0" d="M1209.8,369.8c4.3,5.1,10.7,3.2,16.1,4.6c57,15,79.2,63.7,78.8,114.3c0,5-1.6,7.5-6.9,7.5
		c-23.6-0.1-47.1-0.2-70.7,0c-5.3,0-7.2-2.1-7.4-7.1c-0.2-6.3-0.8-12.7-1.7-19c-3.3-23-18.9-34.4-40-29.3
		c-16.2,3.9-24.7,24.1-18.4,43.6c4.8,14.9,16.6,23.5,28.9,31.2c19.6,12.2,39.8,23.4,59.1,35.9c57,37.1,75.8,121.9,40.1,180
		c-9,14.6-20.8,26.5-36.6,33.4c-45.8,20-91.7,19.6-136.2-3c-30.4-15.4-44.9-42.3-46.6-76c-0.6-13.1,0.1-26.3-0.4-39.4
		c-0.2-6,1.8-7.7,7.7-7.7c23.1,0.3,46.2,0.4,69.4-0.1c7.4-0.2,7.7,3.3,7.7,9c0.1,12.2-1.3,24.4,2.2,36.5c4.8,16.2,15.3,24,33.3,24
		c15.3,0,25.6-8.5,29.7-24.6c6.1-23.8-1.1-42.6-24.2-58.2c-19.8-13.4-40.9-25-60.9-38.2c-50.1-33.2-68.4-78.1-56.6-137.1
		c7.9-39.3,31.5-64,69.9-75.1c4.9-1.4,10.8-0.5,14.6-5.2C1177.1,369.8,1193.5,369.8,1209.8,369.8z"/>
	<path class="st0" d="M1468.3,369.8c6.5,1.7,12.9,3.4,19.4,5.2c56.4,15.2,78.4,65,76.8,114.1c-0.2,5.2-1.9,7.2-7.1,7.1
		c-23.1-0.2-46.2-0.3-69.4,0c-6.7,0.1-8.6-2.8-8.6-8.9c0.1-5.9-0.2-11.8-1.2-17.6c-2.4-13.6-7.4-25.8-22.7-28.8
		c-11.4-2.2-23.2-1.9-30.8,8.9c-9.2,13.1-8.8,27.4-1.9,41.2c5.9,11.7,16.7,18.9,27.6,25.5c19.3,11.8,39,22.9,58,35.2
		c57.2,37.2,75.6,122,39.3,180.2c-11.2,18-26.7,30.9-46.6,37.7c-38.2,13.1-76.7,12.9-114.3-2c-35.7-14.2-55.3-41.2-57.9-79.7
		c-0.9-13.5-0.1-27.2-0.7-40.8c-0.3-6.7,2.1-8.5,8.5-8.4c22.7,0.3,45.3,0.4,68,0c7.7-0.2,9,3.1,8.8,9.7c-0.3,9.5-0.3,19.1,0.5,28.5
		c1.9,20.7,14.8,31.7,35.4,31.3c17.1-0.3,28.1-12.4,30.3-32c2.5-22.4-6.9-38.8-25-50.6c-20.1-13.1-41-24.9-60.9-38.2
		c-51.5-34.3-70.2-81.8-56.3-140.8c8.8-37.4,32.1-60.7,68.6-71.5c5.4-1.6,11.7-0.7,16.1-5.3C1437.4,369.8,1452.9,369.8,1468.3,369.8
		z"/>
	<path class="st0" d="M2108,533c0,44.9,0.5,89.8-0.1,134.6c-1,69.2-39.7,108-109,110.6c-22.3,0.8-44.4,0.2-65.9-6.4
		c-43.5-13.5-69.6-49-70.1-98.9c-0.9-86.1-0.4-172.2-0.5-258.4c0-11.3-3.7-26.5,2-32.8c6.8-7.5,22.2-2.1,33.9-2.4
		c14.5-0.4,29,0.5,43.5-0.3c9.8-0.5,12,2.9,12,12.3c-0.3,89.7-0.2,179.5-0.2,269.2c0,5.4-0.2,10.9,0.2,16.3
		c1.6,21.7,10,30.7,29.5,31.5c18.4,0.8,29.5-9,32.5-29.1c0.9-6.2,1.1-12.6,1.1-19c0.1-89.3,0.2-178.6-0.2-267.9
		c-0.1-11,3.2-13.8,13.7-13.4c22.2,0.8,44.4,0.6,66.6,0c8.8-0.2,11.5,2.2,11.4,11.3c-0.5,47.6-0.2,95.2-0.2,142.8
		C2108.1,533,2108.1,533,2108,533z"/>
	<path class="st0" d="M1604.2,574.7c0-60.7,0.2-121.5-0.2-182.2c-0.1-9.9,1.4-14,12.9-13.9c61.6,0.7,123.3,0.5,184.9,0.1
		c9.1-0.1,12.7,1.7,12.3,11.7c-0.8,19-0.6,38.1-0.1,57.1c0.2,7.9-2.4,9.7-9.9,9.6c-32.2-0.4-64.4,0.2-96.5-0.4
		c-9.5-0.2-12.5,2.4-12,12c0.8,16.3,0.7,32.6,0,48.9c-0.4,8.9,2.3,11.7,11.4,11.5c29.4-0.5,58.9,0.5,88.4-0.5c13.1-0.5,16,4,15.3,16
		c-1,17.2-0.7,34.4-0.1,51.6c0.3,8.4-2.3,10.8-10.7,10.7c-30.8-0.5-61.6,0.2-92.4-0.4c-9.8-0.2-12.2,3-11.9,12.3
		c0.6,20.4,0.6,40.8,0,61.2c-0.3,8.8,2.2,11.5,11.2,11.3c34-0.5,68,0.1,102-0.4c9-0.1,11.6,2.4,11.3,11.3c-0.7,19.5-0.5,39-0.1,58.5
		c0.2,7.3-2.3,9-9.3,9c-65.7-0.2-131.4-0.4-197.1,0.1c-10,0.1-9.4-4.8-9.4-11.6C1604.2,697.1,1604.2,635.9,1604.2,574.7z"/>
	<path class="st0" d="M2214.6,925.8c-1.5-39.4-2.7-78.7-4.8-118c-0.5-9.2,1.6-11.9,10.6-11.4c13.9,0.9,32.2-4.4,40.7,2.5
		c8.8,7.3,2.6,26.2,2.7,40.1c0.3,63.4-0.1,126.8,0.4,190.3c0.1,10.5-2.9,13.4-12.9,12.5c-15.2-1.5-34.1,6-44.6-2.9
		c-9.7-8.3-10.8-26.9-15.5-41c-9.8-29.5-19.5-59-27.6-83.8c0,26.7,0,57.9,0,89c0,12.5,6.6,29-1.2,36.3c-6.6,6.2-23.2,1-35.2,2.4
		c-13.4,1.5-17.2-2.4-17-16.5c0.9-71.6,0.6-143.2,0.1-214.7c-0.1-10.7,1.6-15.4,13.6-14.3c14.8,1.3,33.1-4.5,43.8,2.3
		c11.4,7.2,11.2,27.2,16.1,41.6c9.7,28.5,18.7,57.2,28,85.8C2212.7,926,2213.6,925.9,2214.6,925.8z"/>
	<path class="st0" d="M815.7,909.7c1.6,39.8,2.9,79.7,5.1,119.5c0.6,10.2-2,13.5-12.3,12.7c-13.4-1.1-31.7,4.5-39.3-2.4
		c-8.8-7.9-2.6-26.4-2.7-40.2c-0.3-63.4,0.1-126.8-0.4-190.3c-0.1-10,2.1-13.6,12.5-12.6c15.6,1.6,35.3-6.1,46,2.9
		c10,8.4,10.7,27.8,15.5,42.4c9.2,28.1,18.4,56.3,28.4,86.7c0-20.3,0.4-38.1-0.1-55.8c-0.6-22.6-1.5-45.3-2.9-67.9
		c-0.4-7.1,2.1-8.4,8.3-8.3c12.2,0.3,24.5,0.4,36.7,0c6.7-0.2,9.5,1.4,9.4,8.8c-0.3,75.7-0.2,151.3,0,227c0,6.7-1.4,9.8-8.9,9.5
		c-15.8-0.6-34.4,4.7-46.8-1.8c-12.7-6.7-12.1-27.6-17.2-42.3c-10.1-29.4-19.5-58.9-29.2-88.4C817.1,909.4,816.4,909.6,815.7,909.7z
		"/>
	<path class="st0" d="M1792.2,895.6c0,27.2,0.3,54.4-0.1,81.6c-0.6,40.8-19.8,62.9-60,69.1c-15.8,2.4-31.7,1.6-47.2-2.6
		c-29.3-8-46-28.7-46.8-63.8c-1.3-58.4-0.4-116.9-0.7-175.4c0-7.3,3.4-8,9.1-7.9c11.8,0.2,23.6,0.7,35.3-0.1
		c10.3-0.7,13.7,1.9,13.6,13.1c-0.6,54.4-0.3,108.8-0.3,163.1c0,5,0.3,9.9,0.8,14.9c0.9,9.7,7,14.5,16.1,15.5
		c9.5,1,16.7-2.6,20.6-11.9c2.4-5.7,2.2-11.5,2.2-17.4c0-55.3,0.2-110.6-0.2-165.9c0-8.3,1.3-12.2,10.8-11.5
		c12.2,0.9,24.5,0.9,36.7,0c9-0.6,10.3,3,10.2,10.8C1792,836.7,1792.3,866.1,1792.2,895.6C1792.3,895.6,1792.2,895.6,1792.2,895.6z"
		/>
	<path class="st0" d="M1130.7,918.2c0-36.7,0.2-73.5-0.2-110.2c-0.1-8.1,0.9-11.9,10.7-11.7c36.7,0.7,73.5,0.5,110.2,0.1
		c7.8-0.1,11.8,1.2,10.8,10.2c-1.3,12.5,5.1,28.6-2.5,36.7c-7,7.5-23.2,1.6-35.3,2.3c-0.9,0.1-1.8,0-2.7,0c-34.5,0-34.1,0-33.9,34.6
		c0,8.8,2.9,10.5,10.8,10.2c16.8-0.6,33.6,0.2,50.3-0.3c7.8-0.2,11.8,1.5,11.2,10.4c-0.7,9.9-0.6,20,0,29.9c0.4,7.4-2.5,9.2-9.4,9.1
		c-17.7-0.4-35.4,0.2-53-0.3c-7.9-0.2-10.2,2.4-9.7,10.1c0.8,13.9-4.5,32.3,2.5,40.7c7.3,8.7,26.3,1.9,40.2,2.7c0.5,0,0.9,0,1.4,0
		c11.1,1,28.5-5,32.1,2.3c5.6,11.4,2,27.2,2.4,41.2c0.1,5.2-3.2,5.6-7.2,5.6c-40.4,0-80.7-0.2-121.1,0.1c-9.1,0.1-7.5-5.5-7.5-10.7
		C1130.7,993.4,1130.7,955.8,1130.7,918.2z"/>
	<path class="st0" d="M1476,919.2c0-37.2,0.3-74.4-0.2-111.5c-0.1-8.7,2-11.5,11.1-11.3c36.7,0.5,73.5,0.5,110.2,0
		c8.6-0.1,11,2.4,10.4,10.7c-0.7,9-0.9,18.2,0,27.2c1,10.2-3.2,12-12.3,11.6c-17.2-0.7-34.5,0.1-51.7-0.3c-7.1-0.2-10.2,1-10.3,9.3
		c-0.6,35.5-1,35.5,34.4,35.5c0.9,0,1.8-0.1,2.7,0c11.2,0.9,27.6-5.2,32.4,2.3c7,11,1.7,27.2,2.2,41.2c0.3,6.6-4.5,5.5-8.4,5.5
		c-16.8,0.1-33.6,0.6-50.3-0.2c-9.7-0.4-14.3,1.6-12.9,12.4c1.6,13.3-5.7,31.3,2.9,38.9c7.5,6.6,25,1.9,38,2.2c0.9,0,1.8-0.1,2.7,0
		c11.1,0.9,27.5-5.2,32.3,2.3c7,10.9,1.7,27.2,2.2,41.1c0.2,5.2-3.2,5.6-7.2,5.6c-40.4,0-80.7-0.2-121.1,0.1c-9.3,0.1-7.1-6-7.2-11
		C1475.9,993.6,1476,956.4,1476,919.2z"/>
	<path class="st0" d="M2290,918.4c0-37.2,0.3-74.4-0.2-111.6c-0.1-8.5,2.2-11,10.6-10.5c11.7,0.7,23.6,0.8,35.3,0
		c9.5-0.7,12.1,2.2,12,11.8c-0.5,56.7,0.2,113.4-0.6,170c-0.2,12.5,3.5,15.4,15.1,14.6c15.4-1,30.8,0.2,46.2-0.4
		c7.9-0.3,10.1,2.4,9.6,9.9c-0.8,12.6,4,29.1-2.4,36.7c-6.6,8-23.8,2.2-36.3,2.4c-26.3,0.4-52.6-0.2-78.9,0.3
		c-8.3,0.2-10.8-2-10.6-10.5C2290.3,993.7,2290,956,2290,918.4z"/>
	<path class="st0" d="M2069.6,1013.5c0,28.1,0,28.1-27.8,28.1c-27.3,0-27.3,0-27.3-27.4c0-28.9,0-28.9,28.6-28.9
		C2069.6,985.3,2069.6,985.3,2069.6,1013.5z"/>
	<path class="st0" d="M2409.8,762.3c-7-8.1-8.3-17.8-8.9-27.9c-2.3-37.1-4.4-74.1-7.2-111.2c-1.5-19.8-12.9-33.1-30.5-41.7
		c-3.9-1.9-9.1-1.5-12.3-6.5c25.8-12,40.8-32.3,44.8-60.2c2.2-15.2,2.6-30.6,1.1-46.1c-5.3-55.6-34.1-84.7-89.3-88.4
		c-48.9-3.2-97.9-0.6-146.8-1.5c-6.9-0.1-9.4,1.7-9.4,9.1c0.2,124.2,0.2,248.3,0,372.5c0,7.3,2.2,9.2,9.3,9.1
		c23.1-0.4,46.3-0.9,69.3,0.2c11.9,0.5,13.9-3.6,13.8-14.5c-0.6-43-0.3-86.1-0.1-129.2c0-3.8-2.7-9.1,4.2-11.1
		c29.5-8.6,52,6,56.1,36.2c3.9,28.9,1.7,57.9,2.5,86.9c0.2,8.2,1.1,16.3,3.3,24.1c1.1,3.9,2.3,7.3,8,7.3c29.5-0.3,58.9-0.2,88.4-0.1
		C2412,769.5,2413.8,767,2409.8,762.3z M2305.7,514.6c-3.9,21.8-13.9,30.1-36.1,30.5c-26.2,0.5-26.2,0.5-26.2-25.7
		c0-20.4,0.3-40.8-0.1-61.1c-0.1-7,1.9-10.1,9.2-9.2c2.7,0.3,5.4,0,8.1,0.1c36.2,0.9,46.5,11.5,46.3,51.4
		C2306.7,502.9,2306.8,508.8,2305.7,514.6z"/>
	<path class="st0" d="M1054,761.7c-3.6-14.9-6.8-30-10.1-45c-23.7-109.2-47.4-218.3-70.9-327.5c-1.6-7.3-4.3-10.4-12.4-10.3
		c-29.9,0.5-59.8,0.5-89.7,0c-8.5-0.1-11.5,2.6-13.1,11c-4.9,25.7-11.1,51.3-16.7,76.9c-21.9,100.3-43.8,200.5-66.2,302.7
		c28.1,0,54.8-0.5,81.5,0.3c9.2,0.3,11.4-3.5,12.4-11.2c2.4-18.8,5.6-37.6,7.9-56.5c0.8-6.6,2.9-9.1,10-8.9c17.7,0.6,35.4,0.5,53,0
		c7.8-0.2,10.9,1.8,12,10.1c2.6,19.7,6.9,39.2,9.9,58.9c0.9,5.8,3.1,7.4,8.6,7.3c25.8-0.2,51.7-0.3,77.5,0
		C1054.2,769.7,1055.4,767.6,1054,761.7z M928.3,625.2c-9.9-0.9-19.9-0.8-29.8,0c-9,0.7-10.7-2.5-9.4-10.8
		c7-43.7,13.6-87.4,20.3-131.2c1.5-9.8,2.9-19.6,4.4-29.4c0.7-0.1,1.3-0.3,2-0.4c5.5,37,11,74,16.5,111c2.4,16.1,3.9,32.3,7.2,48.2
		C941.7,623.3,938.7,626.1,928.3,625.2z"/>
	<path class="st0" d="M1974.9,1008c-1.2-17.2-2.3-34.4-2.6-51.6c-0.4-18.2-8.8-29.8-26.7-35.4c1-1.6,1.3-2.8,2-3.1
		c29.7-14.1,30.3-55.2,22.8-82.3c-6.9-25-26.9-38.1-58.6-38.8c-26.7-0.5-53.5,0.4-80.2-0.5c-10.5-0.3-12.5,3-12.4,12.8
		c0.5,62.1,0.2,124.1,0.3,186.2c0,14.9-5.3,35.4,2.3,43.2c9.4,9.6,29.9,1.9,45.5,3.2c7.9,0.7,9.8-2.4,9.7-9.9
		c-0.4-25.8-0.2-51.6-0.1-77.5c0-3.6-1.9-8.1,4-10c15.4-4.8,30.9,4.2,33.5,20.3c1.2,7.6,1.8,15.3,2.1,23c0.5,14,0.2,28.1,0.9,42.1
		c0.3,5.4,0.1,12.1,9.2,12c18.4-0.3,36.8-0.1,58.2-0.1C1975.8,1030.4,1975.7,1019.1,1974.9,1008z M1914.7,886.9
		c-4.1,11.4-25,19.1-35.4,13.2c-3.1-1.7-2.4-4.5-2.4-7c-0.1-7.7,0-15.3,0-23c0-3.6-0.8-7.4,0.2-10.8c1.8-6.3-6-16.3,5.7-18.7
		c16.5-3.3,29.7,3.3,33,15.7C1918.3,866.5,1918.3,876.8,1914.7,886.9z"/>
	<path class="st0" d="M1101,855.9c-0.7-32.9-17-50.6-49.4-56.5c-30.1-5.5-60.6-1.3-90.8-3.1c-10.8-0.6-12.4,3.3-12.3,12.9
		c0.6,36.2,0.2,72.4,0.2,108.7c0,37.6,0,75.2,0.1,112.7c0,4.9-2.3,11.3,7.1,11c31.6-1.2,63.4,2.4,94.9-2.3
		c31.6-4.7,49.6-23.8,50.2-55.8C1102,941.1,1102,898.5,1101,855.9z M1044.1,970c-0.2,19.9-9,27.6-28.6,27.9c-7,0.1-9.5-2.1-9.4-9.2
		c0.4-23,0.1-46.1,0.1-69.1c0-22.6,0.5-45.2-0.2-67.8c-0.4-10.2,3.3-12.1,12.4-11.1c18.8,2,25.2,7.6,25.5,26.3
		C1044.3,901.3,1044.4,935.6,1044.1,970z"/>
	<path class="st0" d="M1446.3,855.4c-0.7-31.9-17.3-50-48.7-55.8c-30.5-5.7-61.4-1.5-92.1-3.1c-10.1-0.5-11.6,3.1-11.5,12.2
		c0.5,36.7,0.2,73.3,0.2,110c0,37.6-0.1,75.1,0.1,112.7c0,4.3-2.7,10.7,6.1,10.4c32.5-1.1,65.2,2.6,97.6-2.5
		c29.6-4.7,47.8-24.6,48.4-54.8C1447.2,941.4,1447.2,898.3,1446.3,855.4z M1389.4,969.2c0,5.5-0.7,10.9-2.9,15.9
		c-3.9,8.6-20.8,15.9-30.5,12.4c-9.1-3.3-4.1-11.7-4.3-17.5c-0.7-20.3-0.3-40.7-0.3-61c0-23.1,0.4-46.1-0.2-69.2
		c-0.2-8.1,2.6-9.7,10.1-9.3c20.6,1.2,27.7,7.7,28,28.3C1389.6,902.3,1389.4,935.7,1389.4,969.2z"/>
	<path class="st0" d="M565.9,1031.8c-15-67.1-29.4-134.3-44.1-201.5c-2.4-10.9-0.9-25.3-8.6-31.8c-7.9-6.5-21.8-1.1-31.2-2
		c-9.1,0-16.5,0.8-23.6-0.2c-11-1.4-14.3,3.5-16.3,13.6c-6.1,31.1-13.3,61.9-20.1,92.8c-9.3,42.4-18.6,84.8-28,127.2
		c-1.8,7.9-1.6,12.5,8.9,11.7c13.1-1,26.3-0.4,39.4-0.1c5.7,0.1,7.9-1.8,8.5-7.6c1.1-10.8,3.4-21.5,4.5-32.3
		c0.6-6.1,2.6-8.2,9.1-8.5c37.3-1.8,37.3-2,43.1,34.6c0.2,1.3,0.4,2.7,0.4,4.1c0.2,7.2,3.3,10.2,11,9.8c13.1-0.6,26.3-0.6,39.4,0
		C566.8,1042.1,567.7,1039.9,565.9,1031.8z M481.6,950.8c-19.5-1-19.2-0.2-16-20.2c4.6-28.5,8.7-57,13-85.6c0.6-0.1,1.1-0.1,1.7-0.2
		c3.7,24.4,7.4,48.8,11,73.3c0.9,6.2,1.4,12.6,2.9,18.7C496.9,948,493.3,951.4,481.6,950.8z"/>
	<path class="st0" d="M698.4,805.1c-1.5-6.9-4.3-8.8-10.9-8.6c-17.2,0.4-34.5,0.5-51.7,0c-6.8-0.2-9.6,2-11,8.6
		c-16.9,78.3-34,156.5-51.4,236.6c15.8,0,30.3-0.6,44.7,0.2c10,0.6,14-2,15.1-12.9c3.8-37.3,4.3-37.1,41.3-35.6
		c6.9,0.3,9.5,2.4,10.2,9.2c1.1,10.3,3.5,20.5,5.2,30.8c0.7,4.1,0.6,8.3,6.5,8.3c17.4-0.1,34.8,0,53.1,0
		C732.2,961.6,715.1,883.4,698.4,805.1z M665.2,950.8c-21.3-0.8-21.3-0.1-17.9-20.8c2.3-14.3,4.7-28.5,6.9-42.8
		c2.1-13.8,4.1-27.6,6.2-41.4c0.6-0.2,1.2-0.4,1.9-0.6c4.6,30.8,9,61.7,13.9,92.4C677.7,947,676.6,951.3,665.2,950.8z"/>
</g>
</svg>
