<?xml version="1.0" standalone="no"?>
<!DOCTYPE svg PUBLIC "-//W3C//DTD SVG 20010904//EN"
 "http://www.w3.org/TR/2001/REC-SVG-20010904/DTD/svg10.dtd">
<svg version="1.0" xmlns="http://www.w3.org/2000/svg"
 width="320.000000pt" height="320.000000pt" viewBox="0 0 320.000000 320.000000"
 preserveAspectRatio="xMidYMid meet">
<metadata>
Created by potrace 1.11, written by Peter Selinger 2001-2013
</metadata>
<g transform="translate(0.000000,320.000000) scale(0.100000,-0.100000)"
fill="#000000" stroke="none">
<path d="M675 3188 c-101 -11 -243 -50 -303 -85 -150 -86 -262 -215 -313 -360
-53 -151 -52 -131 -55 -1103 -1 -532 1 -930 7 -965 5 -33 12 -76 14 -95 3 -19
13 -57 21 -85 87 -274 310 -448 617 -482 40 -4 468 -8 952 -8 966 0 985 1
1135 58 257 97 419 330 441 632 7 104 4 1767 -3 1830 -14 109 -15 120 -28 165
-6 25 -17 51 -22 58 -6 6 -8 12 -4 12 11 0 -40 93 -79 146 -117 156 -272 243
-500 280 -62 10 -1790 12 -1880 2z"/>
</g>
</svg>
